<mxfile host="app.diagrams.net" modified="2023-09-04T10:59:20.382Z" agent="Mozilla/5.0 (Windows NT 10.0; Win64; x64) AppleWebKit/537.36 (KHTML, like Gecko) Chrome/116.0.0.0 Safari/537.36" etag="wb8iMNzLIOjS-B4hDr4G" version="21.7.2" type="github">
  <diagram id="C5RBs43oDa-KdzZeNtuy" name="Page-1">
    <mxGraphModel dx="744" dy="761" grid="1" gridSize="10" guides="1" tooltips="1" connect="1" arrows="1" fold="1" page="1" pageScale="1" pageWidth="827" pageHeight="1169" math="0" shadow="0">
      <root>
        <mxCell id="WIyWlLk6GJQsqaUBKTNV-0" />
        <mxCell id="WIyWlLk6GJQsqaUBKTNV-1" parent="WIyWlLk6GJQsqaUBKTNV-0" />
        <mxCell id="TGsdi5tGyftuY55TBd2I-20" value="" style="edgeStyle=orthogonalEdgeStyle;rounded=0;orthogonalLoop=1;jettySize=auto;html=1;" edge="1" parent="WIyWlLk6GJQsqaUBKTNV-1" source="TGsdi5tGyftuY55TBd2I-18" target="TGsdi5tGyftuY55TBd2I-19">
          <mxGeometry relative="1" as="geometry" />
        </mxCell>
        <mxCell id="TGsdi5tGyftuY55TBd2I-18" value="시작" style="ellipse;whiteSpace=wrap;html=1;aspect=fixed;" vertex="1" parent="WIyWlLk6GJQsqaUBKTNV-1">
          <mxGeometry x="60" y="30" width="80" height="80" as="geometry" />
        </mxCell>
        <mxCell id="TGsdi5tGyftuY55TBd2I-22" value="" style="edgeStyle=orthogonalEdgeStyle;rounded=0;orthogonalLoop=1;jettySize=auto;html=1;" edge="1" parent="WIyWlLk6GJQsqaUBKTNV-1" source="TGsdi5tGyftuY55TBd2I-19" target="TGsdi5tGyftuY55TBd2I-21">
          <mxGeometry relative="1" as="geometry" />
        </mxCell>
        <mxCell id="TGsdi5tGyftuY55TBd2I-19" value="숫자&amp;nbsp; 네 개 선택" style="shape=parallelogram;perimeter=parallelogramPerimeter;whiteSpace=wrap;html=1;fixedSize=1;" vertex="1" parent="WIyWlLk6GJQsqaUBKTNV-1">
          <mxGeometry x="190" y="40" width="120" height="60" as="geometry" />
        </mxCell>
        <mxCell id="TGsdi5tGyftuY55TBd2I-21" value="대기" style="shape=process;whiteSpace=wrap;html=1;backgroundOutline=1;" vertex="1" parent="WIyWlLk6GJQsqaUBKTNV-1">
          <mxGeometry x="390" y="40" width="120" height="60" as="geometry" />
        </mxCell>
        <mxCell id="TGsdi5tGyftuY55TBd2I-25" value="" style="edgeStyle=orthogonalEdgeStyle;rounded=0;orthogonalLoop=1;jettySize=auto;html=1;" edge="1" parent="WIyWlLk6GJQsqaUBKTNV-1" source="TGsdi5tGyftuY55TBd2I-23" target="TGsdi5tGyftuY55TBd2I-24">
          <mxGeometry relative="1" as="geometry" />
        </mxCell>
        <mxCell id="TGsdi5tGyftuY55TBd2I-23" value="답을 제출한다" style="rounded=0;whiteSpace=wrap;html=1;" vertex="1" parent="WIyWlLk6GJQsqaUBKTNV-1">
          <mxGeometry x="110" y="170" width="120" height="60" as="geometry" />
        </mxCell>
        <mxCell id="TGsdi5tGyftuY55TBd2I-27" value="" style="edgeStyle=orthogonalEdgeStyle;rounded=0;orthogonalLoop=1;jettySize=auto;html=1;" edge="1" parent="WIyWlLk6GJQsqaUBKTNV-1" source="TGsdi5tGyftuY55TBd2I-24" target="TGsdi5tGyftuY55TBd2I-26">
          <mxGeometry relative="1" as="geometry" />
        </mxCell>
        <mxCell id="TGsdi5tGyftuY55TBd2I-31" value="" style="edgeStyle=orthogonalEdgeStyle;rounded=0;orthogonalLoop=1;jettySize=auto;html=1;" edge="1" parent="WIyWlLk6GJQsqaUBKTNV-1" source="TGsdi5tGyftuY55TBd2I-24" target="TGsdi5tGyftuY55TBd2I-30">
          <mxGeometry relative="1" as="geometry" />
        </mxCell>
        <mxCell id="TGsdi5tGyftuY55TBd2I-24" value="답이 형식에 맞는가" style="rhombus;whiteSpace=wrap;html=1;rounded=0;" vertex="1" parent="WIyWlLk6GJQsqaUBKTNV-1">
          <mxGeometry x="82.5" y="280" width="175" height="80" as="geometry" />
        </mxCell>
        <mxCell id="TGsdi5tGyftuY55TBd2I-29" value="" style="edgeStyle=orthogonalEdgeStyle;rounded=0;orthogonalLoop=1;jettySize=auto;html=1;" edge="1" parent="WIyWlLk6GJQsqaUBKTNV-1" source="TGsdi5tGyftuY55TBd2I-26" target="TGsdi5tGyftuY55TBd2I-28">
          <mxGeometry relative="1" as="geometry" />
        </mxCell>
        <mxCell id="TGsdi5tGyftuY55TBd2I-47" value="" style="edgeStyle=orthogonalEdgeStyle;rounded=0;orthogonalLoop=1;jettySize=auto;html=1;" edge="1" parent="WIyWlLk6GJQsqaUBKTNV-1" source="TGsdi5tGyftuY55TBd2I-26" target="TGsdi5tGyftuY55TBd2I-46">
          <mxGeometry relative="1" as="geometry" />
        </mxCell>
        <mxCell id="TGsdi5tGyftuY55TBd2I-26" value="홈런인지 검사" style="rhombus;whiteSpace=wrap;html=1;rounded=0;" vertex="1" parent="WIyWlLk6GJQsqaUBKTNV-1">
          <mxGeometry x="82.5" y="400" width="175" height="80" as="geometry" />
        </mxCell>
        <mxCell id="TGsdi5tGyftuY55TBd2I-44" value="" style="edgeStyle=orthogonalEdgeStyle;rounded=0;orthogonalLoop=1;jettySize=auto;html=1;" edge="1" parent="WIyWlLk6GJQsqaUBKTNV-1" source="TGsdi5tGyftuY55TBd2I-28" target="TGsdi5tGyftuY55TBd2I-43">
          <mxGeometry relative="1" as="geometry" />
        </mxCell>
        <mxCell id="TGsdi5tGyftuY55TBd2I-49" value="" style="edgeStyle=orthogonalEdgeStyle;rounded=0;orthogonalLoop=1;jettySize=auto;html=1;" edge="1" parent="WIyWlLk6GJQsqaUBKTNV-1" source="TGsdi5tGyftuY55TBd2I-28" target="TGsdi5tGyftuY55TBd2I-48">
          <mxGeometry relative="1" as="geometry" />
        </mxCell>
        <mxCell id="TGsdi5tGyftuY55TBd2I-28" value="10번 시도했는가?" style="rhombus;whiteSpace=wrap;html=1;rounded=0;" vertex="1" parent="WIyWlLk6GJQsqaUBKTNV-1">
          <mxGeometry x="82.5" y="520" width="175" height="80" as="geometry" />
        </mxCell>
        <mxCell id="TGsdi5tGyftuY55TBd2I-33" value="" style="edgeStyle=orthogonalEdgeStyle;rounded=0;orthogonalLoop=1;jettySize=auto;html=1;" edge="1" parent="WIyWlLk6GJQsqaUBKTNV-1" source="TGsdi5tGyftuY55TBd2I-30" target="TGsdi5tGyftuY55TBd2I-32">
          <mxGeometry relative="1" as="geometry" />
        </mxCell>
        <mxCell id="TGsdi5tGyftuY55TBd2I-30" value="에러 표시" style="ellipse;whiteSpace=wrap;html=1;rounded=0;" vertex="1" parent="WIyWlLk6GJQsqaUBKTNV-1">
          <mxGeometry x="360" y="280" width="80" height="80" as="geometry" />
        </mxCell>
        <mxCell id="TGsdi5tGyftuY55TBd2I-32" value="대기" style="whiteSpace=wrap;html=1;rounded=0;" vertex="1" parent="WIyWlLk6GJQsqaUBKTNV-1">
          <mxGeometry x="500" y="290" width="120" height="60" as="geometry" />
        </mxCell>
        <mxCell id="TGsdi5tGyftuY55TBd2I-34" value="예" style="text;html=1;align=center;verticalAlign=middle;resizable=0;points=[];autosize=1;strokeColor=none;fillColor=none;" vertex="1" parent="WIyWlLk6GJQsqaUBKTNV-1">
          <mxGeometry x="130" y="360" width="40" height="30" as="geometry" />
        </mxCell>
        <mxCell id="TGsdi5tGyftuY55TBd2I-35" value="예" style="text;html=1;align=center;verticalAlign=middle;resizable=0;points=[];autosize=1;strokeColor=none;fillColor=none;" vertex="1" parent="WIyWlLk6GJQsqaUBKTNV-1">
          <mxGeometry x="257.5" y="400" width="40" height="30" as="geometry" />
        </mxCell>
        <mxCell id="TGsdi5tGyftuY55TBd2I-36" value="예" style="text;html=1;align=center;verticalAlign=middle;resizable=0;points=[];autosize=1;strokeColor=none;fillColor=none;" vertex="1" parent="WIyWlLk6GJQsqaUBKTNV-1">
          <mxGeometry x="250" y="520" width="40" height="30" as="geometry" />
        </mxCell>
        <mxCell id="TGsdi5tGyftuY55TBd2I-37" value="아니오" style="text;html=1;align=center;verticalAlign=middle;resizable=0;points=[];autosize=1;strokeColor=none;fillColor=none;" vertex="1" parent="WIyWlLk6GJQsqaUBKTNV-1">
          <mxGeometry x="110" y="480" width="60" height="30" as="geometry" />
        </mxCell>
        <mxCell id="TGsdi5tGyftuY55TBd2I-38" value="아니오" style="text;html=1;align=center;verticalAlign=middle;resizable=0;points=[];autosize=1;strokeColor=none;fillColor=none;" vertex="1" parent="WIyWlLk6GJQsqaUBKTNV-1">
          <mxGeometry x="247.5" y="280" width="60" height="30" as="geometry" />
        </mxCell>
        <mxCell id="TGsdi5tGyftuY55TBd2I-39" value="아니오" style="text;html=1;align=center;verticalAlign=middle;resizable=0;points=[];autosize=1;strokeColor=none;fillColor=none;" vertex="1" parent="WIyWlLk6GJQsqaUBKTNV-1">
          <mxGeometry x="100" y="610" width="60" height="30" as="geometry" />
        </mxCell>
        <mxCell id="TGsdi5tGyftuY55TBd2I-57" value="" style="edgeStyle=orthogonalEdgeStyle;rounded=0;orthogonalLoop=1;jettySize=auto;html=1;" edge="1" parent="WIyWlLk6GJQsqaUBKTNV-1" source="TGsdi5tGyftuY55TBd2I-43" target="TGsdi5tGyftuY55TBd2I-56">
          <mxGeometry relative="1" as="geometry" />
        </mxCell>
        <mxCell id="TGsdi5tGyftuY55TBd2I-43" value="스트라이크, 볼 수 표시" style="ellipse;whiteSpace=wrap;html=1;rounded=0;" vertex="1" parent="WIyWlLk6GJQsqaUBKTNV-1">
          <mxGeometry x="90" y="650" width="160" height="70" as="geometry" />
        </mxCell>
        <mxCell id="TGsdi5tGyftuY55TBd2I-51" value="" style="edgeStyle=orthogonalEdgeStyle;rounded=0;orthogonalLoop=1;jettySize=auto;html=1;entryX=0;entryY=0.5;entryDx=0;entryDy=0;" edge="1" parent="WIyWlLk6GJQsqaUBKTNV-1" source="TGsdi5tGyftuY55TBd2I-46" target="TGsdi5tGyftuY55TBd2I-52">
          <mxGeometry relative="1" as="geometry">
            <mxPoint x="500" y="440" as="targetPoint" />
          </mxGeometry>
        </mxCell>
        <mxCell id="TGsdi5tGyftuY55TBd2I-46" value="홈런 표시" style="ellipse;whiteSpace=wrap;html=1;rounded=0;" vertex="1" parent="WIyWlLk6GJQsqaUBKTNV-1">
          <mxGeometry x="360" y="400" width="80" height="80" as="geometry" />
        </mxCell>
        <mxCell id="TGsdi5tGyftuY55TBd2I-55" value="" style="edgeStyle=orthogonalEdgeStyle;rounded=0;orthogonalLoop=1;jettySize=auto;html=1;" edge="1" parent="WIyWlLk6GJQsqaUBKTNV-1" source="TGsdi5tGyftuY55TBd2I-48" target="TGsdi5tGyftuY55TBd2I-54">
          <mxGeometry relative="1" as="geometry" />
        </mxCell>
        <mxCell id="TGsdi5tGyftuY55TBd2I-48" value="패배 표시" style="ellipse;whiteSpace=wrap;html=1;rounded=0;" vertex="1" parent="WIyWlLk6GJQsqaUBKTNV-1">
          <mxGeometry x="360" y="520" width="80" height="80" as="geometry" />
        </mxCell>
        <mxCell id="TGsdi5tGyftuY55TBd2I-52" value="끝" style="ellipse;whiteSpace=wrap;html=1;rounded=0;" vertex="1" parent="WIyWlLk6GJQsqaUBKTNV-1">
          <mxGeometry x="520" y="400" width="80" height="80" as="geometry" />
        </mxCell>
        <mxCell id="TGsdi5tGyftuY55TBd2I-54" value="끝" style="ellipse;whiteSpace=wrap;html=1;rounded=0;" vertex="1" parent="WIyWlLk6GJQsqaUBKTNV-1">
          <mxGeometry x="520" y="520" width="80" height="80" as="geometry" />
        </mxCell>
        <mxCell id="TGsdi5tGyftuY55TBd2I-59" value="" style="edgeStyle=orthogonalEdgeStyle;rounded=0;orthogonalLoop=1;jettySize=auto;html=1;" edge="1" parent="WIyWlLk6GJQsqaUBKTNV-1" source="TGsdi5tGyftuY55TBd2I-56" target="TGsdi5tGyftuY55TBd2I-58">
          <mxGeometry relative="1" as="geometry" />
        </mxCell>
        <mxCell id="TGsdi5tGyftuY55TBd2I-56" value="시도횟수 1 증가" style="ellipse;whiteSpace=wrap;html=1;rounded=0;" vertex="1" parent="WIyWlLk6GJQsqaUBKTNV-1">
          <mxGeometry x="370" y="645" width="100" height="80" as="geometry" />
        </mxCell>
        <mxCell id="TGsdi5tGyftuY55TBd2I-58" value="대기" style="whiteSpace=wrap;html=1;rounded=0;" vertex="1" parent="WIyWlLk6GJQsqaUBKTNV-1">
          <mxGeometry x="510" y="660" width="120" height="60" as="geometry" />
        </mxCell>
      </root>
    </mxGraphModel>
  </diagram>
</mxfile>
